<svg width="22" height="25" viewBox="0 0 22 25" fill="none" xmlns="http://www.w3.org/2000/svg">
<path d="M11 0C7.20294 0 4.125 2.79813 4.125 6.25C4.125 9.70187 7.20294 12.5 11 12.5C14.7971 12.5 17.875 9.70187 17.875 6.25C17.875 2.79813 14.7971 0 11 0ZM5.84375 6.25C5.84375 5.0068 6.387 3.81451 7.35398 2.93544C8.32096 2.05636 9.63248 1.5625 11 1.5625C12.3675 1.5625 13.679 2.05636 14.646 2.93544C15.613 3.81451 16.1562 5.0068 16.1562 6.25C16.1562 7.4932 15.613 8.68549 14.646 9.56456C13.679 10.4436 12.3675 10.9375 11 10.9375C9.63248 10.9375 8.32096 10.4436 7.35398 9.56456C6.387 8.68549 5.84375 7.4932 5.84375 6.25ZM2.92188 15C2.14706 15 1.40398 15.2798 0.85604 15.7778C0.308102 16.2758 0.000182308 16.9513 0 17.6556V18.125C0 20.4719 1.33513 22.2294 3.3825 23.3625C5.39687 24.4769 8.10287 25 11 25C13.8971 25 16.6031 24.4769 18.6175 23.3625C20.6649 22.2294 22 20.4719 22 18.125V17.6556C21.9998 16.9513 21.6919 16.2758 21.144 15.7778C20.596 15.2798 19.8529 15 19.0781 15H2.92188ZM1.71875 17.6556C1.71893 17.3657 1.84577 17.0876 2.07138 16.8826C2.29699 16.6776 2.60291 16.5625 2.92188 16.5625H19.0781C19.7429 16.5625 20.2812 17.0519 20.2812 17.6556V18.125C20.2812 19.84 19.3462 21.13 17.7237 22.0281C16.0669 22.945 13.7032 23.4375 11 23.4375C8.29675 23.4375 5.93313 22.945 4.27625 22.0281C2.65375 21.13 1.71875 19.8406 1.71875 18.125V17.6556Z" fill="#03254C"/>
</svg>
