<svg width="24" height="24" viewBox="0 0 24 24" fill="none" xmlns="http://www.w3.org/2000/svg">
<path d="M15.579 14.7512C15.1897 14.1349 14.9885 13.4185 15 12.6896C15.0116 11.9607 15.2354 11.251 15.6441 10.6474C16.0528 10.0437 16.6287 9.57227 17.3012 9.29072C17.9737 9.00917 18.7137 8.92974 19.4307 9.06215C20.1477 9.19456 20.8105 9.53306 21.338 10.0362C21.8656 10.5394 22.235 11.1854 22.401 11.8952C22.567 12.605 22.5225 13.3479 22.2729 14.0328C22.0233 14.7177 21.5794 15.315 20.9955 15.7515C22.818 16.7564 24 18.6865 24 20.9961V23.2456C24 23.4445 23.921 23.6352 23.7803 23.7759C23.6397 23.9165 23.4489 23.9955 23.25 23.9955C23.0511 23.9955 22.8603 23.9165 22.7197 23.7759C22.579 23.6352 22.5 23.4445 22.5 23.2456V20.9961C22.5 18.4105 20.586 16.4969 18 16.4969C16.635 16.4969 16.053 16.4669 15.2925 16.3139C13.4175 15.933 11.793 14.8142 9.915 12.4657C9.84795 12.3895 9.79704 12.3006 9.76537 12.2042C9.7337 12.1078 9.72192 12.006 9.73075 11.9049C9.73957 11.8039 9.76881 11.7056 9.81671 11.6162C9.8646 11.5268 9.93015 11.448 10.0094 11.3846C10.0886 11.3212 10.1799 11.2746 10.2777 11.2475C10.3755 11.2204 10.4777 11.2134 10.5783 11.227C10.6788 11.2406 10.7756 11.2744 10.8627 11.3265C10.9498 11.3785 11.0254 11.4477 11.085 11.5298C12.435 13.2155 13.5645 14.1393 14.736 14.5938C14.9685 14.6717 15.2535 14.7182 15.579 14.7512ZM18.2565 14.9432C18.3815 14.9582 18.507 14.9752 18.633 14.9942L18.75 14.9972C19.3252 14.9959 19.878 14.7745 20.2949 14.3784C20.7118 13.9822 20.9612 13.4415 20.9918 12.8673C21.0224 12.2931 20.8319 11.7289 20.4594 11.2907C20.0869 10.8526 19.5608 10.5737 18.989 10.5113C18.4173 10.4489 17.8433 10.6079 17.3851 10.9554C16.9269 11.303 16.6192 11.8128 16.5252 12.3801C16.4313 12.9474 16.5582 13.5292 16.8799 14.0059C17.2016 14.4826 17.6952 14.818 18.2565 14.9432ZM14.67 17.9516C14.8689 17.9516 15.0597 18.0306 15.2003 18.1713C15.341 18.3119 15.42 18.5026 15.42 18.7015C15.4088 18.8195 15.3836 18.9358 15.345 19.0479C15.0765 19.6178 15 20.2087 15 21.0006V23.2501C15 23.449 14.921 23.6397 14.7803 23.7804C14.6397 23.921 14.4489 24 14.25 24C14.0511 24 13.8603 23.921 13.7197 23.7804C13.579 23.6397 13.5 23.449 13.5 23.2501V21.0006C13.5 20.0152 13.608 19.2219 13.9605 18.457C14.0114 18.3094 14.1071 18.1814 14.2343 18.0908C14.3615 18.0002 14.5138 17.9515 14.67 17.9516ZM8.937 8.65638C9.05404 8.81214 9.10585 9.00733 9.08146 9.20062C9.05707 9.39391 8.9584 9.57012 8.80633 9.69194C8.65427 9.81377 8.46076 9.87163 8.26676 9.8533C8.07277 9.83496 7.89353 9.74186 7.767 9.5937L4.665 5.71693C4.59795 5.64079 4.54704 5.55183 4.51537 5.45545C4.4837 5.35907 4.47192 5.25726 4.48075 5.1562C4.48957 5.05513 4.51881 4.9569 4.56671 4.86747C4.6146 4.77803 4.68015 4.69924 4.75938 4.63586C4.83862 4.57248 4.92989 4.52584 5.02768 4.49876C5.12546 4.47167 5.22773 4.46471 5.32829 4.47829C5.42884 4.49187 5.5256 4.52571 5.6127 4.57776C5.69979 4.6298 5.77542 4.69898 5.835 4.7811L8.937 8.65638ZM1.5 16.4969H9.75C9.94891 16.4969 10.1397 16.5759 10.2803 16.7165C10.421 16.8572 10.5 17.0479 10.5 17.2468C10.5 17.4456 10.421 17.6364 10.2803 17.777C10.1397 17.9176 9.94891 17.9966 9.75 17.9966H0.75C0.551088 17.9966 0.360322 17.9176 0.21967 17.777C0.0790176 17.6364 0 17.4456 0 17.2468V0.749859C0 0.550984 0.0790176 0.360255 0.21967 0.219629C0.360322 0.0790028 0.551088 0 0.75 0L18.75 0C18.9489 0 19.1397 0.0790028 19.2803 0.219629C19.421 0.360255 19.5 0.550984 19.5 0.749859V5.24902C19.5 5.44789 19.421 5.63862 19.2803 5.77925C19.1397 5.91987 18.9489 5.99888 18.75 5.99888C18.5511 5.99888 18.3603 5.91987 18.2197 5.77925C18.079 5.63862 18 5.44789 18 5.24902V1.49972H1.5V16.4969Z" fill="#03254C"/>
</svg>
