<svg width="28" height="28" viewBox="0 0 28 28" fill="none" xmlns="http://www.w3.org/2000/svg">
<mask id="path-1-inside-1_18_700" fill="white">
<path fill-rule="evenodd" clip-rule="evenodd" d="M14.5555 4.375C11.3472 4.375 8.76416 6.94167 8.76416 10.0882C8.76416 10.6272 8.84 11.1487 8.98 11.641C9.55983 11.809 10.1035 12.061 10.5935 12.3877C10.6943 12.4487 10.7817 12.5295 10.8505 12.6252C10.9193 12.7208 10.9681 12.8294 10.9939 12.9444C11.0197 13.0594 11.022 13.1784 11.0007 13.2943C10.9794 13.4102 10.9349 13.5206 10.8699 13.6189C10.8049 13.7171 10.7207 13.8013 10.6223 13.8662C10.524 13.9312 10.4136 13.9756 10.2977 13.9968C10.1817 14.018 10.0627 14.0156 9.94777 13.9897C9.83281 13.9637 9.72427 13.9149 9.62866 13.846C8.94841 13.3953 8.14986 13.1561 7.33383 13.1588C5.046 13.1588 3.2085 14.9905 3.2085 17.2258C3.2085 18.4788 3.7825 19.6012 4.69366 20.3502C4.78422 20.4225 4.8595 20.5121 4.91513 20.6138C4.97077 20.7155 5.00564 20.8272 5.01774 20.9425C5.02983 21.0578 5.0189 21.1743 4.98558 21.2853C4.95227 21.3963 4.89723 21.4996 4.82366 21.5892C4.75009 21.6787 4.65946 21.7528 4.55703 21.807C4.4546 21.8613 4.34242 21.8946 4.22699 21.9052C4.11156 21.9157 3.99519 21.9032 3.88464 21.8684C3.77409 21.8335 3.67155 21.7771 3.583 21.7023C2.91933 21.1602 2.38445 20.4773 2.01703 19.7031C1.64961 18.929 1.45883 18.0828 1.4585 17.2258C1.4585 14.07 3.99016 11.5173 7.13316 11.4123C7.05399 10.9754 7.01416 10.5322 7.01416 10.0882C7.01416 5.957 10.3998 2.625 14.5555 2.625C18.2398 2.625 21.3175 5.243 21.9697 8.71617C24.653 9.856 26.5418 12.4938 26.5418 15.5785C26.5407 16.7997 26.2387 18.0018 25.6627 19.0786C25.0866 20.1554 24.2542 21.0738 23.239 21.7525C23.0465 21.8794 22.8117 21.9252 22.5856 21.88C22.3595 21.8347 22.1605 21.7021 22.0316 21.5109C21.9028 21.3196 21.8547 21.0853 21.8977 20.8588C21.9407 20.6323 22.0714 20.4319 22.2613 20.3012C23.0388 19.7826 23.6764 19.0804 24.1178 18.2566C24.5592 17.4329 24.7907 16.513 24.7918 15.5785C24.7918 13.0853 23.1702 10.9562 20.8975 10.1792C20.2868 9.97032 19.6459 9.86389 19.0005 9.86417C18.3203 9.86417 17.6705 9.98083 17.0662 10.1908C16.8485 10.2619 16.6116 10.2448 16.4063 10.1432C16.2011 10.0415 16.0439 9.86351 15.9684 9.64727C15.893 9.43103 15.9053 9.19383 16.0028 8.9866C16.1003 8.77936 16.2751 8.6186 16.4898 8.53883C17.6213 8.14382 18.8302 8.02189 20.0178 8.183C19.61 7.06322 18.8666 6.09658 17.889 5.41504C16.9113 4.73351 15.7472 4.3703 14.5555 4.375ZM12.6632 16.9283C12.7382 17.0154 12.7953 17.1164 12.8313 17.2256C12.8673 17.3348 12.8814 17.45 12.8728 17.5646C12.8643 17.6792 12.8332 17.791 12.7814 17.8937C12.7296 17.9963 12.6581 18.0877 12.571 18.1627L9.35683 20.9335H12.0017C12.1802 20.9334 12.3546 20.988 12.5012 21.0899C12.6479 21.1919 12.7599 21.3362 12.8221 21.5036C12.8843 21.671 12.8938 21.8534 12.8494 22.0264C12.8049 22.1993 12.7086 22.3545 12.5733 22.4712L7.57183 26.7785C7.48481 26.8536 7.38385 26.9108 7.27472 26.9468C7.1656 26.9829 7.05043 26.9971 6.93582 26.9886C6.8212 26.9802 6.70937 26.9492 6.60671 26.8976C6.50405 26.8459 6.41257 26.7745 6.3375 26.6875C6.26242 26.6005 6.20523 26.4995 6.16917 26.3904C6.13312 26.2813 6.11891 26.1661 6.12736 26.0515C6.13581 25.9369 6.16675 25.825 6.21842 25.7224C6.27009 25.6197 6.34147 25.5282 6.4285 25.4532L9.64383 22.6835H7.00016C6.82131 22.6838 6.64665 22.6293 6.4997 22.5274C6.35276 22.4254 6.24059 22.2809 6.17831 22.1132C6.11602 21.9456 6.10661 21.7628 6.15135 21.5897C6.19608 21.4165 6.2928 21.2612 6.4285 21.1447L11.4288 16.8373C11.5158 16.7622 11.6168 16.705 11.7259 16.669C11.8351 16.6329 11.9502 16.6187 12.0648 16.6271C12.1795 16.6356 12.2913 16.6665 12.394 16.7182C12.4966 16.7699 12.5881 16.8413 12.6632 16.9283ZM18.1185 17.465C18.2824 17.6291 18.3744 17.8515 18.3744 18.0833C18.3744 18.3152 18.2824 18.5376 18.1185 18.7017L15.7852 21.035C15.7051 21.121 15.6085 21.1899 15.5011 21.2377C15.3938 21.2856 15.2779 21.3113 15.1604 21.3134C15.043 21.3154 14.9263 21.2938 14.8173 21.2498C14.7083 21.2058 14.6094 21.1403 14.5263 21.0572C14.4432 20.9741 14.3777 20.8751 14.3337 20.7662C14.2897 20.6572 14.2681 20.5405 14.2701 20.4231C14.2722 20.3056 14.2979 20.1897 14.3458 20.0824C14.3936 19.975 14.4625 19.8784 14.5485 19.7983L16.8818 17.465C17.0459 17.3011 17.2683 17.2091 17.5002 17.2091C17.732 17.2091 17.9544 17.3011 18.1185 17.465ZM20.4518 21.5483C20.6157 21.7124 20.7077 21.9348 20.7077 22.1667C20.7077 22.3985 20.6157 22.6209 20.4518 22.785L18.1185 25.1183C18.0384 25.2043 17.9418 25.2733 17.8345 25.3211C17.7271 25.3689 17.6113 25.3946 17.4938 25.3967C17.3763 25.3988 17.2596 25.3772 17.1506 25.3331C17.0417 25.2891 16.9427 25.2236 16.8596 25.1405C16.7765 25.0575 16.711 24.9585 16.667 24.8495C16.623 24.7406 16.6014 24.6239 16.6035 24.5064C16.6055 24.3889 16.6313 24.273 16.6791 24.1657C16.7269 24.0584 16.7959 23.9618 16.8818 23.8817L19.2152 21.5483C19.3792 21.3845 19.6016 21.2924 19.8335 21.2924C20.0654 21.2924 20.2878 21.3845 20.4518 21.5483ZM15.7852 22.715C15.949 22.8791 16.0411 23.1015 16.0411 23.3333C16.0411 23.5652 15.949 23.7876 15.7852 23.9517L13.4518 26.285C13.3717 26.371 13.2751 26.4399 13.1678 26.4877C13.0605 26.5356 12.9446 26.5613 12.8271 26.5634C12.7096 26.5654 12.5929 26.5438 12.484 26.4998C12.375 26.4558 12.276 26.3903 12.193 26.3072C12.1099 26.2241 12.0444 26.1251 12.0004 26.0162C11.9563 25.9072 11.9347 25.7905 11.9368 25.6731C11.9389 25.5556 11.9646 25.4397 12.0124 25.3324C12.0602 25.225 12.1292 25.1284 12.2152 25.0483L14.5485 22.715C14.7126 22.5511 14.935 22.4591 15.1668 22.4591C15.3987 22.4591 15.6211 22.5511 15.7852 22.715Z"/>
</mask>
<path fill-rule="evenodd" clip-rule="evenodd" d="M14.5555 4.375C11.3472 4.375 8.76416 6.94167 8.76416 10.0882C8.76416 10.6272 8.84 11.1487 8.98 11.641C9.55983 11.809 10.1035 12.061 10.5935 12.3877C10.6943 12.4487 10.7817 12.5295 10.8505 12.6252C10.9193 12.7208 10.9681 12.8294 10.9939 12.9444C11.0197 13.0594 11.022 13.1784 11.0007 13.2943C10.9794 13.4102 10.9349 13.5206 10.8699 13.6189C10.8049 13.7171 10.7207 13.8013 10.6223 13.8662C10.524 13.9312 10.4136 13.9756 10.2977 13.9968C10.1817 14.018 10.0627 14.0156 9.94777 13.9897C9.83281 13.9637 9.72427 13.9149 9.62866 13.846C8.94841 13.3953 8.14986 13.1561 7.33383 13.1588C5.046 13.1588 3.2085 14.9905 3.2085 17.2258C3.2085 18.4788 3.7825 19.6012 4.69366 20.3502C4.78422 20.4225 4.8595 20.5121 4.91513 20.6138C4.97077 20.7155 5.00564 20.8272 5.01774 20.9425C5.02983 21.0578 5.0189 21.1743 4.98558 21.2853C4.95227 21.3963 4.89723 21.4996 4.82366 21.5892C4.75009 21.6787 4.65946 21.7528 4.55703 21.807C4.4546 21.8613 4.34242 21.8946 4.22699 21.9052C4.11156 21.9157 3.99519 21.9032 3.88464 21.8684C3.77409 21.8335 3.67155 21.7771 3.583 21.7023C2.91933 21.1602 2.38445 20.4773 2.01703 19.7031C1.64961 18.929 1.45883 18.0828 1.4585 17.2258C1.4585 14.07 3.99016 11.5173 7.13316 11.4123C7.05399 10.9754 7.01416 10.5322 7.01416 10.0882C7.01416 5.957 10.3998 2.625 14.5555 2.625C18.2398 2.625 21.3175 5.243 21.9697 8.71617C24.653 9.856 26.5418 12.4938 26.5418 15.5785C26.5407 16.7997 26.2387 18.0018 25.6627 19.0786C25.0866 20.1554 24.2542 21.0738 23.239 21.7525C23.0465 21.8794 22.8117 21.9252 22.5856 21.88C22.3595 21.8347 22.1605 21.7021 22.0316 21.5109C21.9028 21.3196 21.8547 21.0853 21.8977 20.8588C21.9407 20.6323 22.0714 20.4319 22.2613 20.3012C23.0388 19.7826 23.6764 19.0804 24.1178 18.2566C24.5592 17.4329 24.7907 16.513 24.7918 15.5785C24.7918 13.0853 23.1702 10.9562 20.8975 10.1792C20.2868 9.97032 19.6459 9.86389 19.0005 9.86417C18.3203 9.86417 17.6705 9.98083 17.0662 10.1908C16.8485 10.2619 16.6116 10.2448 16.4063 10.1432C16.2011 10.0415 16.0439 9.86351 15.9684 9.64727C15.893 9.43103 15.9053 9.19383 16.0028 8.9866C16.1003 8.77936 16.2751 8.6186 16.4898 8.53883C17.6213 8.14382 18.8302 8.02189 20.0178 8.183C19.61 7.06322 18.8666 6.09658 17.889 5.41504C16.9113 4.73351 15.7472 4.3703 14.5555 4.375ZM12.6632 16.9283C12.7382 17.0154 12.7953 17.1164 12.8313 17.2256C12.8673 17.3348 12.8814 17.45 12.8728 17.5646C12.8643 17.6792 12.8332 17.791 12.7814 17.8937C12.7296 17.9963 12.6581 18.0877 12.571 18.1627L9.35683 20.9335H12.0017C12.1802 20.9334 12.3546 20.988 12.5012 21.0899C12.6479 21.1919 12.7599 21.3362 12.8221 21.5036C12.8843 21.671 12.8938 21.8534 12.8494 22.0264C12.8049 22.1993 12.7086 22.3545 12.5733 22.4712L7.57183 26.7785C7.48481 26.8536 7.38385 26.9108 7.27472 26.9468C7.1656 26.9829 7.05043 26.9971 6.93582 26.9886C6.8212 26.9802 6.70937 26.9492 6.60671 26.8976C6.50405 26.8459 6.41257 26.7745 6.3375 26.6875C6.26242 26.6005 6.20523 26.4995 6.16917 26.3904C6.13312 26.2813 6.11891 26.1661 6.12736 26.0515C6.13581 25.9369 6.16675 25.825 6.21842 25.7224C6.27009 25.6197 6.34147 25.5282 6.4285 25.4532L9.64383 22.6835H7.00016C6.82131 22.6838 6.64665 22.6293 6.4997 22.5274C6.35276 22.4254 6.24059 22.2809 6.17831 22.1132C6.11602 21.9456 6.10661 21.7628 6.15135 21.5897C6.19608 21.4165 6.2928 21.2612 6.4285 21.1447L11.4288 16.8373C11.5158 16.7622 11.6168 16.705 11.7259 16.669C11.8351 16.6329 11.9502 16.6187 12.0648 16.6271C12.1795 16.6356 12.2913 16.6665 12.394 16.7182C12.4966 16.7699 12.5881 16.8413 12.6632 16.9283ZM18.1185 17.465C18.2824 17.6291 18.3744 17.8515 18.3744 18.0833C18.3744 18.3152 18.2824 18.5376 18.1185 18.7017L15.7852 21.035C15.7051 21.121 15.6085 21.1899 15.5011 21.2377C15.3938 21.2856 15.2779 21.3113 15.1604 21.3134C15.043 21.3154 14.9263 21.2938 14.8173 21.2498C14.7083 21.2058 14.6094 21.1403 14.5263 21.0572C14.4432 20.9741 14.3777 20.8751 14.3337 20.7662C14.2897 20.6572 14.2681 20.5405 14.2701 20.4231C14.2722 20.3056 14.2979 20.1897 14.3458 20.0824C14.3936 19.975 14.4625 19.8784 14.5485 19.7983L16.8818 17.465C17.0459 17.3011 17.2683 17.2091 17.5002 17.2091C17.732 17.2091 17.9544 17.3011 18.1185 17.465ZM20.4518 21.5483C20.6157 21.7124 20.7077 21.9348 20.7077 22.1667C20.7077 22.3985 20.6157 22.6209 20.4518 22.785L18.1185 25.1183C18.0384 25.2043 17.9418 25.2733 17.8345 25.3211C17.7271 25.3689 17.6113 25.3946 17.4938 25.3967C17.3763 25.3988 17.2596 25.3772 17.1506 25.3331C17.0417 25.2891 16.9427 25.2236 16.8596 25.1405C16.7765 25.0575 16.711 24.9585 16.667 24.8495C16.623 24.7406 16.6014 24.6239 16.6035 24.5064C16.6055 24.3889 16.6313 24.273 16.6791 24.1657C16.7269 24.0584 16.7959 23.9618 16.8818 23.8817L19.2152 21.5483C19.3792 21.3845 19.6016 21.2924 19.8335 21.2924C20.0654 21.2924 20.2878 21.3845 20.4518 21.5483ZM15.7852 22.715C15.949 22.8791 16.0411 23.1015 16.0411 23.3333C16.0411 23.5652 15.949 23.7876 15.7852 23.9517L13.4518 26.285C13.3717 26.371 13.2751 26.4399 13.1678 26.4877C13.0605 26.5356 12.9446 26.5613 12.8271 26.5634C12.7096 26.5654 12.5929 26.5438 12.484 26.4998C12.375 26.4558 12.276 26.3903 12.193 26.3072C12.1099 26.2241 12.0444 26.1251 12.0004 26.0162C11.9563 25.9072 11.9347 25.7905 11.9368 25.6731C11.9389 25.5556 11.9646 25.4397 12.0124 25.3324C12.0602 25.225 12.1292 25.1284 12.2152 25.0483L14.5485 22.715C14.7126 22.5511 14.935 22.4591 15.1668 22.4591C15.3987 22.4591 15.6211 22.5511 15.7852 22.715Z" fill="#1167B1"/>
<path fill-rule="evenodd" clip-rule="evenodd" d="M14.5555 4.375C11.3472 4.375 8.76416 6.94167 8.76416 10.0882C8.76416 10.6272 8.84 11.1487 8.98 11.641C9.55983 11.809 10.1035 12.061 10.5935 12.3877C10.6943 12.4487 10.7817 12.5295 10.8505 12.6252C10.9193 12.7208 10.9681 12.8294 10.9939 12.9444C11.0197 13.0594 11.022 13.1784 11.0007 13.2943C10.9794 13.4102 10.9349 13.5206 10.8699 13.6189C10.8049 13.7171 10.7207 13.8013 10.6223 13.8662C10.524 13.9312 10.4136 13.9756 10.2977 13.9968C10.1817 14.018 10.0627 14.0156 9.94777 13.9897C9.83281 13.9637 9.72427 13.9149 9.62866 13.846C8.94841 13.3953 8.14986 13.1561 7.33383 13.1588C5.046 13.1588 3.2085 14.9905 3.2085 17.2258C3.2085 18.4788 3.7825 19.6012 4.69366 20.3502C4.78422 20.4225 4.8595 20.5121 4.91513 20.6138C4.97077 20.7155 5.00564 20.8272 5.01774 20.9425C5.02983 21.0578 5.0189 21.1743 4.98558 21.2853C4.95227 21.3963 4.89723 21.4996 4.82366 21.5892C4.75009 21.6787 4.65946 21.7528 4.55703 21.807C4.4546 21.8613 4.34242 21.8946 4.22699 21.9052C4.11156 21.9157 3.99519 21.9032 3.88464 21.8684C3.77409 21.8335 3.67155 21.7771 3.583 21.7023C2.91933 21.1602 2.38445 20.4773 2.01703 19.7031C1.64961 18.929 1.45883 18.0828 1.4585 17.2258C1.4585 14.07 3.99016 11.5173 7.13316 11.4123C7.05399 10.9754 7.01416 10.5322 7.01416 10.0882C7.01416 5.957 10.3998 2.625 14.5555 2.625C18.2398 2.625 21.3175 5.243 21.9697 8.71617C24.653 9.856 26.5418 12.4938 26.5418 15.5785C26.5407 16.7997 26.2387 18.0018 25.6627 19.0786C25.0866 20.1554 24.2542 21.0738 23.239 21.7525C23.0465 21.8794 22.8117 21.9252 22.5856 21.88C22.3595 21.8347 22.1605 21.7021 22.0316 21.5109C21.9028 21.3196 21.8547 21.0853 21.8977 20.8588C21.9407 20.6323 22.0714 20.4319 22.2613 20.3012C23.0388 19.7826 23.6764 19.0804 24.1178 18.2566C24.5592 17.4329 24.7907 16.513 24.7918 15.5785C24.7918 13.0853 23.1702 10.9562 20.8975 10.1792C20.2868 9.97032 19.6459 9.86389 19.0005 9.86417C18.3203 9.86417 17.6705 9.98083 17.0662 10.1908C16.8485 10.2619 16.6116 10.2448 16.4063 10.1432C16.2011 10.0415 16.0439 9.86351 15.9684 9.64727C15.893 9.43103 15.9053 9.19383 16.0028 8.9866C16.1003 8.77936 16.2751 8.6186 16.4898 8.53883C17.6213 8.14382 18.8302 8.02189 20.0178 8.183C19.61 7.06322 18.8666 6.09658 17.889 5.41504C16.9113 4.73351 15.7472 4.3703 14.5555 4.375ZM12.6632 16.9283C12.7382 17.0154 12.7953 17.1164 12.8313 17.2256C12.8673 17.3348 12.8814 17.45 12.8728 17.5646C12.8643 17.6792 12.8332 17.791 12.7814 17.8937C12.7296 17.9963 12.6581 18.0877 12.571 18.1627L9.35683 20.9335H12.0017C12.1802 20.9334 12.3546 20.988 12.5012 21.0899C12.6479 21.1919 12.7599 21.3362 12.8221 21.5036C12.8843 21.671 12.8938 21.8534 12.8494 22.0264C12.8049 22.1993 12.7086 22.3545 12.5733 22.4712L7.57183 26.7785C7.48481 26.8536 7.38385 26.9108 7.27472 26.9468C7.1656 26.9829 7.05043 26.9971 6.93582 26.9886C6.8212 26.9802 6.70937 26.9492 6.60671 26.8976C6.50405 26.8459 6.41257 26.7745 6.3375 26.6875C6.26242 26.6005 6.20523 26.4995 6.16917 26.3904C6.13312 26.2813 6.11891 26.1661 6.12736 26.0515C6.13581 25.9369 6.16675 25.825 6.21842 25.7224C6.27009 25.6197 6.34147 25.5282 6.4285 25.4532L9.64383 22.6835H7.00016C6.82131 22.6838 6.64665 22.6293 6.4997 22.5274C6.35276 22.4254 6.24059 22.2809 6.17831 22.1132C6.11602 21.9456 6.10661 21.7628 6.15135 21.5897C6.19608 21.4165 6.2928 21.2612 6.4285 21.1447L11.4288 16.8373C11.5158 16.7622 11.6168 16.705 11.7259 16.669C11.8351 16.6329 11.9502 16.6187 12.0648 16.6271C12.1795 16.6356 12.2913 16.6665 12.394 16.7182C12.4966 16.7699 12.5881 16.8413 12.6632 16.9283ZM18.1185 17.465C18.2824 17.6291 18.3744 17.8515 18.3744 18.0833C18.3744 18.3152 18.2824 18.5376 18.1185 18.7017L15.7852 21.035C15.7051 21.121 15.6085 21.1899 15.5011 21.2377C15.3938 21.2856 15.2779 21.3113 15.1604 21.3134C15.043 21.3154 14.9263 21.2938 14.8173 21.2498C14.7083 21.2058 14.6094 21.1403 14.5263 21.0572C14.4432 20.9741 14.3777 20.8751 14.3337 20.7662C14.2897 20.6572 14.2681 20.5405 14.2701 20.4231C14.2722 20.3056 14.2979 20.1897 14.3458 20.0824C14.3936 19.975 14.4625 19.8784 14.5485 19.7983L16.8818 17.465C17.0459 17.3011 17.2683 17.2091 17.5002 17.2091C17.732 17.2091 17.9544 17.3011 18.1185 17.465ZM20.4518 21.5483C20.6157 21.7124 20.7077 21.9348 20.7077 22.1667C20.7077 22.3985 20.6157 22.6209 20.4518 22.785L18.1185 25.1183C18.0384 25.2043 17.9418 25.2733 17.8345 25.3211C17.7271 25.3689 17.6113 25.3946 17.4938 25.3967C17.3763 25.3988 17.2596 25.3772 17.1506 25.3331C17.0417 25.2891 16.9427 25.2236 16.8596 25.1405C16.7765 25.0575 16.711 24.9585 16.667 24.8495C16.623 24.7406 16.6014 24.6239 16.6035 24.5064C16.6055 24.3889 16.6313 24.273 16.6791 24.1657C16.7269 24.0584 16.7959 23.9618 16.8818 23.8817L19.2152 21.5483C19.3792 21.3845 19.6016 21.2924 19.8335 21.2924C20.0654 21.2924 20.2878 21.3845 20.4518 21.5483ZM15.7852 22.715C15.949 22.8791 16.0411 23.1015 16.0411 23.3333C16.0411 23.5652 15.949 23.7876 15.7852 23.9517L13.4518 26.285C13.3717 26.371 13.2751 26.4399 13.1678 26.4877C13.0605 26.5356 12.9446 26.5613 12.8271 26.5634C12.7096 26.5654 12.5929 26.5438 12.484 26.4998C12.375 26.4558 12.276 26.3903 12.193 26.3072C12.1099 26.2241 12.0444 26.1251 12.0004 26.0162C11.9563 25.9072 11.9347 25.7905 11.9368 25.6731C11.9389 25.5556 11.9646 25.4397 12.0124 25.3324C12.0602 25.225 12.1292 25.1284 12.2152 25.0483L14.5485 22.715C14.7126 22.5511 14.935 22.4591 15.1668 22.4591C15.3987 22.4591 15.6211 22.5511 15.7852 22.715Z" stroke="#FFB800" stroke-width="2" mask="url(#path-1-inside-1_18_700)"/>
<path fill-rule="evenodd" clip-rule="evenodd" d="M14.5555 4.375C11.3472 4.375 8.76416 6.94167 8.76416 10.0882C8.76416 10.6272 8.84 11.1487 8.98 11.641C9.55983 11.809 10.1035 12.061 10.5935 12.3877C10.6943 12.4487 10.7817 12.5295 10.8505 12.6252C10.9193 12.7208 10.9681 12.8294 10.9939 12.9444C11.0197 13.0594 11.022 13.1784 11.0007 13.2943C10.9794 13.4102 10.9349 13.5206 10.8699 13.6189C10.8049 13.7171 10.7207 13.8013 10.6223 13.8662C10.524 13.9312 10.4136 13.9756 10.2977 13.9968C10.1817 14.018 10.0627 14.0156 9.94777 13.9897C9.83281 13.9637 9.72427 13.9149 9.62866 13.846C8.94841 13.3953 8.14986 13.1561 7.33383 13.1588C5.046 13.1588 3.2085 14.9905 3.2085 17.2258C3.2085 18.4788 3.7825 19.6012 4.69366 20.3502C4.78422 20.4225 4.8595 20.5121 4.91513 20.6138C4.97077 20.7155 5.00564 20.8272 5.01774 20.9425C5.02983 21.0578 5.0189 21.1743 4.98558 21.2853C4.95227 21.3963 4.89723 21.4996 4.82366 21.5892C4.75009 21.6787 4.65946 21.7528 4.55703 21.807C4.4546 21.8613 4.34242 21.8946 4.22699 21.9052C4.11156 21.9157 3.99519 21.9032 3.88464 21.8684C3.77409 21.8335 3.67155 21.7771 3.583 21.7023C2.91933 21.1602 2.38445 20.4773 2.01703 19.7031C1.64961 18.929 1.45883 18.0828 1.4585 17.2258C1.4585 14.07 3.99016 11.5173 7.13316 11.4123C7.05399 10.9754 7.01416 10.5322 7.01416 10.0882C7.01416 5.957 10.3998 2.625 14.5555 2.625C18.2398 2.625 21.3175 5.243 21.9697 8.71617C24.653 9.856 26.5418 12.4938 26.5418 15.5785C26.5407 16.7997 26.2387 18.0018 25.6627 19.0786C25.0866 20.1554 24.2542 21.0738 23.239 21.7525C23.0465 21.8794 22.8117 21.9252 22.5856 21.88C22.3595 21.8347 22.1605 21.7021 22.0316 21.5109C21.9028 21.3196 21.8547 21.0853 21.8977 20.8588C21.9407 20.6323 22.0714 20.4319 22.2613 20.3012C23.0388 19.7826 23.6764 19.0804 24.1178 18.2566C24.5592 17.4329 24.7907 16.513 24.7918 15.5785C24.7918 13.0853 23.1702 10.9562 20.8975 10.1792C20.2868 9.97032 19.6459 9.86389 19.0005 9.86417C18.3203 9.86417 17.6705 9.98083 17.0662 10.1908C16.8485 10.2619 16.6116 10.2448 16.4063 10.1432C16.2011 10.0415 16.0439 9.86351 15.9684 9.64727C15.893 9.43103 15.9053 9.19383 16.0028 8.9866C16.1003 8.77936 16.2751 8.6186 16.4898 8.53883C17.6213 8.14382 18.8302 8.02189 20.0178 8.183C19.61 7.06322 18.8666 6.09658 17.889 5.41504C16.9113 4.73351 15.7472 4.3703 14.5555 4.375ZM12.6632 16.9283C12.7382 17.0154 12.7953 17.1164 12.8313 17.2256C12.8673 17.3348 12.8814 17.45 12.8728 17.5646C12.8643 17.6792 12.8332 17.791 12.7814 17.8937C12.7296 17.9963 12.6581 18.0877 12.571 18.1627L9.35683 20.9335H12.0017C12.1802 20.9334 12.3546 20.988 12.5012 21.0899C12.6479 21.1919 12.7599 21.3362 12.8221 21.5036C12.8843 21.671 12.8938 21.8534 12.8494 22.0264C12.8049 22.1993 12.7086 22.3545 12.5733 22.4712L7.57183 26.7785C7.48481 26.8536 7.38385 26.9108 7.27472 26.9468C7.1656 26.9829 7.05043 26.9971 6.93582 26.9886C6.8212 26.9802 6.70937 26.9492 6.60671 26.8976C6.50405 26.8459 6.41257 26.7745 6.3375 26.6875C6.26242 26.6005 6.20523 26.4995 6.16917 26.3904C6.13312 26.2813 6.11891 26.1661 6.12736 26.0515C6.13581 25.9369 6.16675 25.825 6.21842 25.7224C6.27009 25.6197 6.34147 25.5282 6.4285 25.4532L9.64383 22.6835H7.00016C6.82131 22.6838 6.64665 22.6293 6.4997 22.5274C6.35276 22.4254 6.24059 22.2809 6.17831 22.1132C6.11602 21.9456 6.10661 21.7628 6.15135 21.5897C6.19608 21.4165 6.2928 21.2612 6.4285 21.1447L11.4288 16.8373C11.5158 16.7622 11.6168 16.705 11.7259 16.669C11.8351 16.6329 11.9502 16.6187 12.0648 16.6271C12.1795 16.6356 12.2913 16.6665 12.394 16.7182C12.4966 16.7699 12.5881 16.8413 12.6632 16.9283ZM18.1185 17.465C18.2824 17.6291 18.3744 17.8515 18.3744 18.0833C18.3744 18.3152 18.2824 18.5376 18.1185 18.7017L15.7852 21.035C15.7051 21.121 15.6085 21.1899 15.5011 21.2377C15.3938 21.2856 15.2779 21.3113 15.1604 21.3134C15.043 21.3154 14.9263 21.2938 14.8173 21.2498C14.7083 21.2058 14.6094 21.1403 14.5263 21.0572C14.4432 20.9741 14.3777 20.8751 14.3337 20.7662C14.2897 20.6572 14.2681 20.5405 14.2701 20.4231C14.2722 20.3056 14.2979 20.1897 14.3458 20.0824C14.3936 19.975 14.4625 19.8784 14.5485 19.7983L16.8818 17.465C17.0459 17.3011 17.2683 17.2091 17.5002 17.2091C17.732 17.2091 17.9544 17.3011 18.1185 17.465ZM20.4518 21.5483C20.6157 21.7124 20.7077 21.9348 20.7077 22.1667C20.7077 22.3985 20.6157 22.6209 20.4518 22.785L18.1185 25.1183C18.0384 25.2043 17.9418 25.2733 17.8345 25.3211C17.7271 25.3689 17.6113 25.3946 17.4938 25.3967C17.3763 25.3988 17.2596 25.3772 17.1506 25.3331C17.0417 25.2891 16.9427 25.2236 16.8596 25.1405C16.7765 25.0575 16.711 24.9585 16.667 24.8495C16.623 24.7406 16.6014 24.6239 16.6035 24.5064C16.6055 24.3889 16.6313 24.273 16.6791 24.1657C16.7269 24.0584 16.7959 23.9618 16.8818 23.8817L19.2152 21.5483C19.3792 21.3845 19.6016 21.2924 19.8335 21.2924C20.0654 21.2924 20.2878 21.3845 20.4518 21.5483ZM15.7852 22.715C15.949 22.8791 16.0411 23.1015 16.0411 23.3333C16.0411 23.5652 15.949 23.7876 15.7852 23.9517L13.4518 26.285C13.3717 26.371 13.2751 26.4399 13.1678 26.4877C13.0605 26.5356 12.9446 26.5613 12.8271 26.5634C12.7096 26.5654 12.5929 26.5438 12.484 26.4998C12.375 26.4558 12.276 26.3903 12.193 26.3072C12.1099 26.2241 12.0444 26.1251 12.0004 26.0162C11.9563 25.9072 11.9347 25.7905 11.9368 25.6731C11.9389 25.5556 11.9646 25.4397 12.0124 25.3324C12.0602 25.225 12.1292 25.1284 12.2152 25.0483L14.5485 22.715C14.7126 22.5511 14.935 22.4591 15.1668 22.4591C15.3987 22.4591 15.6211 22.5511 15.7852 22.715Z" stroke="#1F45CC" stroke-opacity="0.2" stroke-width="2" mask="url(#path-1-inside-1_18_700)"/>
<path d="M14.5555 4.375C11.3472 4.375 8.76416 6.94167 8.76416 10.0882C8.76416 10.6272 8.84 11.1487 8.98 11.641C9.55983 11.809 10.1035 12.061 10.5935 12.3877C10.6943 12.4487 10.7817 12.5295 10.8505 12.6252C10.9193 12.7208 10.9681 12.8294 10.9939 12.9444C11.0197 13.0594 11.022 13.1784 11.0007 13.2943C10.9794 13.4102 10.9349 13.5206 10.8699 13.6189C10.8049 13.7171 10.7207 13.8013 10.6223 13.8662C10.524 13.9312 10.4136 13.9756 10.2977 13.9968C10.1817 14.018 10.0627 14.0156 9.94777 13.9897C9.83281 13.9637 9.72427 13.9149 9.62866 13.846C8.94841 13.3953 8.14986 13.1561 7.33383 13.1588C5.046 13.1588 3.2085 14.9905 3.2085 17.2258C3.2085 18.4788 3.7825 19.6012 4.69366 20.3502C4.78422 20.4225 4.8595 20.5121 4.91513 20.6138C4.97077 20.7155 5.00564 20.8272 5.01774 20.9425C5.02983 21.0578 5.0189 21.1743 4.98558 21.2853C4.95227 21.3963 4.89723 21.4996 4.82366 21.5892C4.75009 21.6787 4.65946 21.7528 4.55703 21.807C4.4546 21.8613 4.34242 21.8946 4.22699 21.9052C4.11156 21.9157 3.99519 21.9032 3.88464 21.8684C3.77409 21.8335 3.67155 21.7771 3.583 21.7023C2.91933 21.1602 2.38445 20.4773 2.01703 19.7031C1.64961 18.929 1.45883 18.0828 1.4585 17.2258C1.4585 14.07 3.99016 11.5173 7.13316 11.4123C7.05399 10.9754 7.01416 10.5322 7.01416 10.0882C7.01416 5.957 10.3998 2.625 14.5555 2.625C18.2398 2.625 21.3175 5.243 21.9697 8.71617C24.653 9.856 26.5418 12.4938 26.5418 15.5785C26.5407 16.7997 26.2387 18.0018 25.6627 19.0786C25.0866 20.1554 24.2542 21.0738 23.239 21.7525C23.0465 21.8794 22.8117 21.9252 22.5856 21.88C22.3595 21.8347 22.1605 21.7021 22.0316 21.5109C21.9028 21.3196 21.8547 21.0853 21.8977 20.8588C21.9407 20.6323 22.0714 20.4319 22.2613 20.3012C23.0388 19.7826 23.6764 19.0804 24.1178 18.2566C24.5592 17.4329 24.7907 16.513 24.7918 15.5785C24.7918 13.0853 23.1702 10.9562 20.8975 10.1792C20.2868 9.97032 19.6459 9.86389 19.0005 9.86417C18.3203 9.86417 17.6705 9.98083 17.0662 10.1908C16.8485 10.2619 16.6116 10.2448 16.4063 10.1432C16.2011 10.0415 16.0439 9.86351 15.9684 9.64727C15.893 9.43103 15.9053 9.19383 16.0028 8.9866C16.1003 8.77936 16.2752 8.6186 16.4898 8.53883C17.6213 8.14382 18.8302 8.02189 20.0178 8.183C19.61 7.06322 18.8666 6.09658 17.889 5.41504C16.9113 4.73351 15.7472 4.3703 14.5555 4.375Z" fill="#1167B1"/>
</svg>
