<svg width="26" height="22" viewBox="0 0 26 22" fill="none" xmlns="http://www.w3.org/2000/svg">
<path d="M12.9981 17.2453C13.1299 17.2453 13.2579 17.2243 13.3822 17.1821C13.5065 17.141 13.6201 17.0696 13.7231 16.9682C14.2871 16.4397 14.8206 15.9232 15.3234 15.4187C15.8271 14.9142 16.2701 14.4216 16.6523 13.941C17.0345 13.4604 17.3406 12.9889 17.5707 12.5265C17.8008 12.0641 17.9162 11.619 17.9172 11.191C17.9172 10.3964 17.6537 9.73442 17.1268 9.205C16.6008 8.6775 15.9667 8.41375 15.2246 8.41375C14.7644 8.41375 14.3474 8.5114 13.9736 8.7067C13.5997 8.90296 13.2746 9.14948 12.9981 9.44625C12.7569 9.14948 12.4424 8.90296 12.0547 8.7067C11.6669 8.5114 11.2569 8.41375 10.8246 8.41375C10.0824 8.41375 9.44834 8.67798 8.92234 9.20644C8.39635 9.73394 8.13335 10.3955 8.13335 11.191C8.13335 11.618 8.24374 12.0632 8.46453 12.5265C8.68625 12.9899 8.98821 13.4619 9.37041 13.9425C9.75262 14.423 10.1956 14.9151 10.6993 15.4187C11.2031 15.9223 11.7272 16.4392 12.2717 16.9696C12.3757 17.0701 12.4898 17.141 12.6141 17.1821C12.7384 17.2243 12.8664 17.2453 12.9981 17.2453ZM5.50614 22C4.88274 22 4.3521 21.7741 3.91424 21.3222C3.47637 20.8703 3.25744 20.3232 3.25744 19.6808V8.86753L1.11727 10.5893C0.952138 10.7186 0.782372 10.7684 0.607967 10.7387C0.433562 10.709 0.283741 10.6094 0.158504 10.44C0.0332661 10.2705 -0.0177565 10.0958 0.00543566 9.91583C0.0267724 9.73489 0.117222 9.5798 0.276783 9.45056L11.6149 0.46247C11.8163 0.307379 12.0352 0.191061 12.2717 0.113515C12.5083 0.0359699 12.7504 -0.0018455 12.9981 6.92061e-05C13.2458 0.00198391 13.4838 0.0402785 13.712 0.114952C13.9402 0.189625 14.1545 0.305943 14.3549 0.463906L25.7278 9.45343C25.8865 9.58172 25.976 9.73585 25.9964 9.91583C26.0149 10.0968 25.9621 10.272 25.8377 10.4414C25.7125 10.6051 25.5627 10.7018 25.3883 10.7315C25.2139 10.7602 25.0469 10.7104 24.8873 10.5822L22.7388 8.86897V19.6808C22.7388 20.3222 22.5199 20.8694 22.082 21.3222C21.6441 21.7741 21.114 22 20.4915 22H5.50614ZM5.50614 20.564H20.4915C20.741 20.564 20.9461 20.4812 21.1066 20.3155C21.267 20.1499 21.3473 19.9383 21.3473 19.6808V7.78334L13.5074 1.62852C13.3646 1.49928 13.1948 1.43466 12.9981 1.43466C12.8015 1.43466 12.6322 1.4988 12.4902 1.62709L4.64896 7.78334V19.6808C4.64896 19.9383 4.72921 20.1499 4.8897 20.3155C5.05019 20.4812 5.25567 20.564 5.50614 20.564ZM5.50614 20.564H4.64896H21.3473H5.50614Z" fill="white"/>
</svg>
