<svg width="28" height="23" viewBox="0 0 28 23" fill="none" xmlns="http://www.w3.org/2000/svg">
<path d="M1 8.11765L14 1L27 8.11765" stroke="white" stroke-width="1.5" stroke-linecap="round" stroke-linejoin="round"/>
<path d="M7.15796 23V21.7059C7.15796 19.9898 7.87882 18.344 9.16197 17.1305C10.4451 15.917 12.1854 15.2353 14.0001 15.2353C15.8147 15.2353 17.555 15.917 18.8382 17.1305C20.1213 18.344 20.8422 19.9898 20.8422 21.7059V23" stroke="white" stroke-width="1.5"/>
<path d="M14 15.2353C15.0888 15.2353 16.133 14.8263 16.9029 14.0982C17.6728 13.3701 18.1053 12.3826 18.1053 11.3529C18.1053 10.3233 17.6728 9.33578 16.9029 8.6077C16.133 7.87961 15.0888 7.47058 14 7.47058C12.9113 7.47058 11.8671 7.87961 11.0972 8.6077C10.3273 9.33578 9.89478 10.3233 9.89478 11.3529C9.89478 12.3826 10.3273 13.3701 11.0972 14.0982C11.8671 14.8263 12.9113 15.2353 14 15.2353Z" stroke="white" stroke-width="1.5" stroke-linecap="round" stroke-linejoin="round"/>
</svg>
