<svg width="26" height="20" viewBox="0 0 26 20" fill="none" xmlns="http://www.w3.org/2000/svg">
<path d="M12.125 7.375H1.62497C1.50502 7.37526 1.38629 7.35086 1.27617 7.30331C1.16605 7.25575 1.06688 7.18607 0.984819 7.09857C0.902761 7.01108 0.83957 6.90765 0.79917 6.7947C0.758769 6.68176 0.742022 6.56172 0.749969 6.44203C0.769323 6.21664 0.873438 6.00699 1.04131 5.85535C1.20918 5.70372 1.42831 5.6214 1.6545 5.625H11.25C11.3699 5.62526 11.4886 5.60086 11.5988 5.55331C11.7089 5.50575 11.8081 5.43607 11.8901 5.34857C11.9722 5.26108 12.0354 5.15765 12.0758 5.0447C12.1162 4.93176 12.1329 4.81172 12.125 4.69203C12.1056 4.46664 12.0015 4.25699 11.8336 4.10535C11.6658 3.95372 11.4466 3.8714 11.2204 3.875H9.09419C9.03098 3.87567 8.96839 3.86263 8.9107 3.83679C8.85302 3.81095 8.80162 3.77292 8.76004 3.72531C8.71846 3.67771 8.68769 3.62165 8.66985 3.56102C8.65201 3.50038 8.64752 3.4366 8.65669 3.37406C8.75268 2.7103 9.03735 2.0881 9.47682 1.5815C9.91629 1.0749 10.4921 0.705223 11.1356 0.516473C11.7792 0.327723 12.4634 0.327845 13.1069 0.516823C13.7504 0.705802 14.326 1.07568 14.7653 1.58244C15.2046 2.0892 15.489 2.7115 15.5848 3.37529C15.6806 4.03908 15.5836 4.71641 15.3054 5.32666C15.0272 5.93691 14.5796 6.4544 14.0158 6.81754C13.4519 7.18068 12.7956 7.37417 12.125 7.375ZM25.2412 7.12453C25.1796 6.26343 24.802 5.45548 24.1808 4.85594C23.5597 4.2564 22.7388 3.90758 21.8761 3.87651C21.0134 3.84544 20.1696 4.13432 19.5069 4.68762C18.8442 5.24093 18.4094 6.01962 18.2861 6.87406C18.2769 6.9366 18.2814 7.00038 18.2992 7.06102C18.3171 7.12165 18.3478 7.17771 18.3894 7.22531C18.431 7.27292 18.4824 7.31095 18.5401 7.33679C18.5978 7.36263 18.6604 7.37567 18.7236 7.375H20.8498C21.0756 7.37196 21.2942 7.45453 21.4616 7.60611C21.629 7.75768 21.7328 7.96703 21.7522 8.19203C21.7601 8.31172 21.7434 8.43176 21.703 8.54471C21.6626 8.65765 21.5994 8.76108 21.5173 8.84857C21.4352 8.93607 21.3361 9.00575 21.226 9.05331C21.1158 9.10086 20.9971 9.12526 20.8772 9.125H2.5295C2.30331 9.1214 2.08418 9.20372 1.91631 9.35535C1.74844 9.50699 1.64432 9.71664 1.62497 9.94203C1.61702 10.0617 1.63377 10.1818 1.67417 10.2947C1.71457 10.4076 1.77776 10.5111 1.85982 10.5986C1.94188 10.6861 2.04105 10.7558 2.15117 10.8033C2.26129 10.8509 2.38002 10.8753 2.49997 10.875H21.75C22.2307 10.875 22.7063 10.776 23.1471 10.5841C23.5879 10.3923 23.9845 10.1116 24.312 9.75976C24.6396 9.40787 24.8911 8.99228 25.051 8.53889C25.2109 8.08551 25.2756 7.60404 25.2412 7.12453ZM15.625 12.625H3.4045C3.17831 12.6214 2.95918 12.7037 2.79131 12.8554C2.62344 13.007 2.51932 13.2166 2.49997 13.442C2.49202 13.5617 2.50877 13.6818 2.54917 13.7947C2.58957 13.9076 2.65276 14.0111 2.73482 14.0986C2.81688 14.1861 2.91605 14.2558 3.02617 14.3033C3.13629 14.3509 3.25502 14.3753 3.37497 14.375H14.7204C14.9462 14.372 15.1648 14.4545 15.3322 14.6061C15.4996 14.7577 15.6035 14.967 15.6228 15.192C15.6307 15.3117 15.614 15.4318 15.5736 15.5447C15.5332 15.6576 15.47 15.7611 15.3879 15.8486C15.3059 15.9361 15.2067 16.0058 15.0966 16.0533C14.9865 16.1009 14.8677 16.1253 14.7478 16.125H12.5942C12.531 16.1243 12.4684 16.1374 12.4107 16.1632C12.353 16.189 12.3016 16.2271 12.26 16.2747C12.2185 16.3223 12.1877 16.3783 12.1699 16.439C12.152 16.4996 12.1475 16.5634 12.1567 16.6259C12.2527 17.2897 12.5373 17.9119 12.9768 18.4185C13.4163 18.9251 13.9921 19.2948 14.6356 19.4835C15.2792 19.6723 15.9634 19.6722 16.6069 19.4832C17.2504 19.2942 17.826 18.9243 18.2653 18.4176C18.7046 17.9108 18.989 17.2885 19.0848 16.6247C19.1806 15.9609 19.0836 15.2836 18.8054 14.6733C18.5272 14.0631 18.0796 13.5456 17.5158 13.1825C16.9519 12.8193 16.2956 12.6258 15.625 12.625Z" fill="#187BCD"/>
</svg>
