<svg width="52" height="13" viewBox="0 0 52 13" fill="none" xmlns="http://www.w3.org/2000/svg">
<path d="M5.72 12L3.384 7.76H2.728V12H-0.00799996V0.768H4.584C5.46933 0.768 6.22133 0.922666 6.84 1.232C7.46933 1.54133 7.93867 1.968 8.248 2.512C8.55733 3.04533 8.712 3.64267 8.712 4.304C8.712 5.05067 8.49867 5.71733 8.072 6.304C7.656 6.89067 7.03733 7.30667 6.216 7.552L8.808 12H5.72ZM2.728 5.824H4.424C4.92533 5.824 5.29867 5.70133 5.544 5.456C5.8 5.21067 5.928 4.864 5.928 4.416C5.928 3.98933 5.8 3.65333 5.544 3.408C5.29867 3.16267 4.92533 3.04 4.424 3.04H2.728V5.824ZM13.1655 2.96V5.232H16.8295V7.344H13.1655V9.808H17.3095V12H10.4295V0.768H17.3095V2.96H13.1655ZM18.6217 6.368C18.6217 5.25867 18.8618 4.272 19.3418 3.408C19.8218 2.53333 20.4884 1.856 21.3418 1.376C22.2058 0.885333 23.1818 0.639999 24.2698 0.639999C25.6031 0.639999 26.7444 0.991999 27.6938 1.696C28.6431 2.4 29.2778 3.36 29.5978 4.576H26.5898C26.3658 4.10667 26.0458 3.74933 25.6298 3.504C25.2244 3.25867 24.7604 3.136 24.2378 3.136C23.3951 3.136 22.7124 3.42933 22.1898 4.016C21.6671 4.60267 21.4058 5.38667 21.4058 6.368C21.4058 7.34933 21.6671 8.13333 22.1898 8.72C22.7124 9.30667 23.3951 9.6 24.2378 9.6C24.7604 9.6 25.2244 9.47733 25.6298 9.232C26.0458 8.98667 26.3658 8.62933 26.5898 8.16H29.5978C29.2778 9.376 28.6431 10.336 27.6938 11.04C26.7444 11.7333 25.6031 12.08 24.2698 12.08C23.1818 12.08 22.2058 11.84 21.3418 11.36C20.4884 10.8693 19.8218 10.192 19.3418 9.328C18.8618 8.464 18.6217 7.47733 18.6217 6.368ZM34.0093 0.768V12H31.2733V0.768H34.0093ZM43.304 0.768V2.96H38.728V5.328H42.152V7.456H38.728V12H35.992V0.768H43.304ZM47.478 2.96V5.232H51.142V7.344H47.478V9.808H51.622V12H44.742V0.768H51.622V2.96H47.478Z" fill="#1167B1"/>
</svg>
